<?xml version="1.0" standalone="no"?>
<!DOCTYPE svg PUBLIC "-//W3C//DTD SVG 20010904//EN"
 "http://www.w3.org/TR/2001/REC-SVG-20010904/DTD/svg10.dtd">
<svg version="1.0" xmlns="http://www.w3.org/2000/svg"
 width="512.000000pt" height="512.000000pt" viewBox="0 0 512.000000 512.000000"
 preserveAspectRatio="xMidYMid meet">

<g transform="translate(0.000000,512.000000) scale(0.100000,-0.100000)"
fill="#000000" stroke="none">
<path d="M2367 4574 c-480 -74 -846 -473 -847 -922 0 -143 44 -307 122 -452
115 -213 343 -446 843 -860 116 -96 260 -224 321 -284 92 -92 117 -125 150
-190 36 -74 39 -86 39 -165 0 -105 -20 -153 -98 -230 -66 -66 -150 -107 -249
-123 -247 -37 -466 101 -658 418 -23 38 -44 71 -45 72 -6 7 -587 -353 -592
-365 -7 -18 84 -179 165 -292 80 -113 212 -249 303 -314 139 -98 317 -171 495
-202 114 -20 361 -20 484 0 307 50 570 213 732 453 132 196 191 437 168 685
-14 142 -42 244 -100 362 -115 232 -250 374 -760 800 -344 287 -557 492 -589
566 -48 110 -36 185 44 266 42 41 65 55 120 72 207 64 422 -29 615 -267 41
-51 77 -92 82 -92 13 0 513 452 516 467 6 25 -312 331 -416 402 -260 176 -546
242 -845 195z"/>
</g>
</svg>
